<?xml version="1.0" standalone="no"?>
<!DOCTYPE svg PUBLIC "-//W3C//DTD SVG 1.1//EN" "http://www.w3.org/Graphics/SVG/1.1/DTD/svg11.dtd" >
<svg xmlns="http://www.w3.org/2000/svg" xmlns:xlink="http://www.w3.org/1999/xlink" version="1.1">
<metadata></metadata>
<defs>
<font id="film_p3bold" horiz-adv-x="565" >
<font-face units-per-em="2048" ascent="1843" descent="-205" />
<missing-glyph horiz-adv-x="425" />
<glyph horiz-adv-x="0" />
<glyph unicode="&#xd;" horiz-adv-x="681" />
<glyph unicode=" "  horiz-adv-x="425" />
<glyph unicode="&#x09;" horiz-adv-x="425" />
<glyph unicode="&#xa0;" horiz-adv-x="425" />
<glyph unicode="!" horiz-adv-x="270" d="M61 0v147h148v-147h-148zM61 295v1139h148v-1139h-148z" />
<glyph unicode="&#x22;" horiz-adv-x="479" d="M61 1286v148h148v-279h-62v131h-86zM270 1286v148h148v-279h-62v131h-86z" />
<glyph unicode="#" horiz-adv-x="860" d="M61 295v135h148v574h-148v135h148v295h147v-295h148v295h147v-295h148v-135h-148v-574h148v-135h-148v-295h-147v295h-148v-295h-147v295h-148zM356 430h148v574h-148v-574z" />
<glyph unicode="$" d="M61 221v209h148v-221q0 -31 21.5 -52.5t52 -21.5t52 21.5t21.5 52.5v366q0 31 -21.5 52.5t-51.5 21.5q-92 0 -157 64.5t-65 156.5v342q0 72 41 129.5t107 79.5v144h147v-144q66 -23 107 -80t41 -129v-208h-148v221q0 31 -21.5 52t-52 21t-52 -21.5t-21.5 -51.5v-367 q0 -31 21.5 -52.5t52.5 -21.5q92 0 156.5 -64.5t64.5 -156.5v-342q0 -72 -41 -129t-107 -80v-143h-147v143q-66 23 -107 80.5t-41 128.5z" />
<glyph unicode="%" horiz-adv-x="729" d="M61 1221v79q0 55 39 94.5t95 39.5h53q55 0 94 -39t39 -95v-79q0 -55 -39 -94.5t-94 -39.5h-53q-55 0 -94.5 39t-39.5 95zM96 14l443 1434l94 -29l-443 -1433zM160 1221q0 -14 10 -24.5t25 -10.5h53q14 0 24.5 10t10.5 25v79q0 14 -10.5 24.5t-24.5 10.5h-53 q-14 0 -24.5 -10t-10.5 -25v-79zM348 133v80q0 55 39 94t94 39h54q55 0 94 -39t39 -94v-80q0 -55 -39 -94t-94 -39h-54q-55 0 -94 39t-39 94zM446 133q0 -14 10.5 -24.5t24.5 -10.5h54q14 0 24 10.5t10 24.5v80q0 14 -10 24.5t-24 10.5h-54q-14 0 -24.5 -10.5t-10.5 -24.5 v-80z" />
<glyph unicode="&#x26;" horiz-adv-x="712" d="M61 221v342q0 92 62 154q-61 61 -62 153v342q0 92 64.5 157t157 65t157 -64.5t64.5 -157.5v-208h-148v221q0 31 -21.5 52t-52 21t-52 -21.5t-21.5 -51.5v-367q0 -31 21.5 -52.5t52.5 -21.5h368v-135h-147v-428q0 -92 -64.5 -156.5t-157 -64.5t-157 64.5t-64.5 156.5z M209 209q0 -31 21.5 -52.5t52 -21.5t52 21.5t21.5 52.5v440h-73q-31 0 -52.5 -21.5t-21.5 -52.5v-366z" />
<glyph unicode="'" horiz-adv-x="270" d="M61 1286v148h148v-279h-62v131h-86z" />
<glyph unicode="(" horiz-adv-x="516" d="M61 61v1311q0 82 57.5 139.5t139.5 57.5h197v-135h-197q-20 0 -34.5 -14.5t-14.5 -35.5v-1335q0 -20 14.5 -34.5t34.5 -14.5h197v-135h-197q-82 0 -139.5 57t-57.5 139z" />
<glyph unicode=")" horiz-adv-x="516" d="M61 0h197q20 0 34.5 14.5t14.5 34.5v1335q0 20 -14 35t-35 15h-197v135h197q82 0 139.5 -57.5t57.5 -139.5v-1311q0 -82 -57.5 -139t-139.5 -57h-197v135z" />
<glyph unicode="*" horiz-adv-x="684" d="M61 1024l162 115l-162 114l78 111l135 -96v166h136v-166l135 96l78 -111l-162 -114l162 -115l-78 -111l-135 97v-166h-136v166l-135 -97z" />
<glyph unicode="+" d="M61 649v135h154v154h135v-154h154v-135h-154v-153h-135v153h-154z" />
<glyph unicode="," horiz-adv-x="270" d="M61 0v147h148v-147l-41 -131h-53l32 131h-86z" />
<glyph unicode="-" horiz-adv-x="417" d="M61 649v135h295v-135h-295z" />
<glyph unicode="." horiz-adv-x="270" d="M61 0v147h148v-147h-148z" />
<glyph unicode="/" horiz-adv-x="659" d="M61 14l443 1434l94 -29l-442 -1433z" />
<glyph unicode="0" d="M61 221v991q0 92 64.5 157t157 65t157 -64.5t64.5 -157.5v-991q0 -92 -64.5 -156.5t-157 -64.5t-157 64.5t-64.5 156.5zM209 209q0 -31 21.5 -52.5t52 -21.5t52 21.5t21.5 52.5v1016q0 31 -21.5 52t-52 21t-52 -21.5t-21.5 -51.5v-1016z" />
<glyph unicode="1" horiz-adv-x="344" d="M61 1298v136h78q59 0 101.5 -42t42.5 -102v-1290h-148v1298h-74z" />
<glyph unicode="2" d="M61 0v563q0 92 64.5 156.5t157.5 64.5q31 0 52 21.5t21 52.5v367q0 31 -21.5 52t-52 21t-52 -21.5t-21.5 -51.5v-221h-148v208q0 92 64.5 157t157 65t157 -64.5t64.5 -157.5v-342q0 -92 -64.5 -156.5t-156.5 -64.5q-31 0 -52.5 -21.5t-21.5 -52.5v-440h295v-135h-443z " />
<glyph unicode="3" d="M61 221v209h148v-221q0 -31 21.5 -52.5t52 -21.5t52 21.5t21.5 52.5v366q0 31 -21.5 52.5t-51.5 21.5h-74v135h74q31 0 52 21.5t21 52.5v367q0 31 -21.5 52t-52 21t-52 -21.5t-21.5 -51.5v-221h-148v208q0 92 64.5 157t157 65t157 -64.5t64.5 -157.5v-342q0 -90 -64 -153 q63 -63 64 -154v-342q0 -92 -64.5 -156.5t-157 -64.5t-157 64.5t-64.5 156.5z" />
<glyph unicode="4" d="M61 870v564h148v-576q0 -31 21.5 -52.5t52.5 -21.5h73v650h148v-1434h-148v649h-73q-92 0 -157 64.5t-65 156.5z" />
<glyph unicode="5" d="M61 221v209h148v-221q0 -31 21.5 -52.5t52 -21.5t52 21.5t21.5 52.5v440h-73q-92 0 -157 64.5t-65 156.5v564h443v-136h-295v-440q0 -31 21.5 -52.5t52.5 -21.5h77q59 0 101.5 -42t42.5 -101v-420q0 -92 -64.5 -156.5t-157 -64.5t-157 64.5t-64.5 156.5z" />
<glyph unicode="6" d="M61 221v991q0 92 64.5 157t157 65t157 -64.5t64.5 -157.5v-208h-148v221q0 31 -21.5 52t-52 21t-52 -21.5t-21.5 -51.5v-441h74q92 0 156.5 -64.5t64.5 -156.5v-342q0 -92 -64.5 -156.5t-157 -64.5t-157 64.5t-64.5 156.5zM209 209q0 -31 21.5 -52.5t52 -21.5t52 21.5 t21.5 52.5v366q0 31 -21.5 52.5t-51.5 21.5h-74v-440z" />
<glyph unicode="7" d="M61 1004v208q0 92 64.5 157t157 65t157 -64.5t64.5 -157.5v-1212h-148v1225q0 31 -21.5 52t-52 21t-52 -21.5t-21.5 -51.5v-221h-148z" />
<glyph unicode="8" d="M61 221v342q0 90 64 154q-63 63 -64 153v342q0 92 64.5 157t157 65t157 -64.5t64.5 -157.5v-342q0 -90 -64 -153q63 -63 64 -154v-342q0 -92 -64.5 -156.5t-157 -64.5t-157 64.5t-64.5 156.5zM209 209q0 -31 21.5 -52.5t52 -21.5t52 21.5t21.5 52.5v366q0 31 -21.5 52.5 t-52 21.5t-52 -21.5t-21.5 -52.5v-366zM209 858q0 -31 21.5 -52.5t52 -21.5t52 21.5t21.5 52.5v367q0 31 -21.5 52t-52 21t-52 -21t-21.5 -52v-367z" />
<glyph unicode="9" d="M61 221v209h148v-221q0 -31 21.5 -52.5t52 -21.5t52 21.5t21.5 52.5v440h-73q-92 0 -157 64.5t-65 156.5v342q0 92 64.5 157t157 65t157 -64.5t64.5 -157.5v-991q0 -92 -64.5 -156.5t-157 -64.5t-157 64.5t-64.5 156.5zM209 858q0 -31 21.5 -52.5t52.5 -21.5h73v441 q0 31 -21.5 52t-52 21t-52 -21.5t-21.5 -51.5v-367z" />
<glyph unicode=":" horiz-adv-x="270" d="M61 0v147h148v-147h-148zM61 643v148h148v-148h-148z" />
<glyph unicode=";" horiz-adv-x="270" d="M61 0v147h148v-147l-41 -131h-53l32 131h-86zM61 643v148h148v-148h-148z" />
<glyph unicode="&#x3c;" horiz-adv-x="577" d="M61 717l361 360l94 -96l-264 -264l264 -264l-94 -97z" />
<glyph unicode="=" d="M61 514v135h443v-135h-443zM61 784v136h443v-136h-443z" />
<glyph unicode="&#x3e;" horiz-adv-x="577" d="M61 453l265 264l-265 264l95 96l360 -360l-360 -361z" />
<glyph unicode="?" d="M61 0v147h148v-147h-148zM61 295v268q0 92 64.5 156.5t157.5 64.5q31 0 52 21.5t21 52.5v367q0 31 -21.5 52t-52 21t-52 -21.5t-21.5 -51.5v-221h-148v208q0 92 64.5 157t157 65t157 -64.5t64.5 -157.5v-342q0 -92 -64.5 -156.5t-156.5 -64.5q-31 0 -52.5 -21.5 t-21.5 -52.5v-280h-148z" />
<glyph unicode="@" horiz-adv-x="1155" d="M61 516v176q0 213 152 364.5t365 151.5t364.5 -151.5t151.5 -364.5v-188q0 -92 -64.5 -156.5t-157.5 -64.5h-294q-92 0 -157 64.5t-65 156.5v201q0 92 64.5 156.5t157 64.5t157 -64.5t64.5 -156.5v-201q0 -39 -19 -86h92q31 0 52.5 21.5t21.5 52.5v213q0 152 -108.5 260 t-260 108t-260 -108.5t-108.5 -259.5v-201q0 -152 108.5 -260.5t260.5 -108.5h294v-135h-294q-213 0 -365 151.5t-152 364.5zM504 492q0 -31 21.5 -52.5t52 -21.5t52 21.5t21.5 52.5v225q0 31 -21.5 52.5t-52 21.5t-52 -21.5t-21.5 -52.5v-225z" />
<glyph unicode="A" d="M61 0v1212q0 92 64.5 157t157 65t157 -64.5t64.5 -157.5v-1212h-148v649h-147v-649h-148zM209 784h147v441q0 31 -21.5 52t-52 21t-52 -21.5t-21.5 -51.5v-441z" />
<glyph unicode="B" d="M61 0v1434h222q92 0 156.5 -64.5t64.5 -157.5v-342q0 -90 -64 -153q63 -63 64 -154v-342q0 -92 -64.5 -156.5t-156.5 -64.5h-222zM209 135h74q31 0 52 21.5t21 52.5v366q0 31 -21.5 52.5t-51.5 21.5h-74v-514zM209 784h74q31 0 52 21.5t21 52.5v367q0 31 -21.5 52 t-51.5 21h-74v-514z" />
<glyph unicode="C" d="M61 221v991q0 92 64.5 157t157 65t157 -64.5t64.5 -157.5v-208h-148v221q0 31 -21.5 52t-52 21t-52 -21.5t-21.5 -51.5v-1016q0 -31 21.5 -52.5t52 -21.5t52 21.5t21.5 52.5v221h148v-209q0 -92 -64.5 -156.5t-157 -64.5t-157 64.5t-64.5 156.5z" />
<glyph unicode="D" d="M61 0v1434h222q92 0 156.5 -64.5t64.5 -157.5v-991q0 -92 -64.5 -156.5t-156.5 -64.5h-222zM209 135h74q31 0 52 21.5t21 52.5v1016q0 31 -21.5 52t-51.5 21h-74v-1163z" />
<glyph unicode="E" d="M61 221v991q0 92 64.5 157t157 65t157 -64.5t64.5 -157.5v-208h-148v221q0 31 -21.5 52t-52 21t-52 -21.5t-21.5 -51.5v-441h147v-135h-147v-440q0 -31 21.5 -52.5t52 -21.5t52 21.5t21.5 52.5v221h148v-209q0 -92 -64.5 -156.5t-157 -64.5t-157 64.5t-64.5 156.5z" />
<glyph unicode="F" d="M61 0v1212q0 92 64.5 157t157 65t157 -64.5t64.5 -157.5v-208h-148v221q0 31 -21.5 52t-52 21t-52 -21.5t-21.5 -51.5v-441h147v-135h-147v-649h-148z" />
<glyph unicode="G" d="M61 221v991q0 92 64.5 157t157 65t157 -64.5t64.5 -157.5v-208h-148v221q0 31 -21.5 52t-52 21t-52 -21.5t-21.5 -51.5v-1016q0 -31 21.5 -52.5t52 -21.5t52 21.5t21.5 52.5v440h-73v135h221v-563q0 -92 -64.5 -156.5t-157 -64.5t-157 64.5t-64.5 156.5z" />
<glyph unicode="H" d="M61 0v1434h148v-650h147v650h148v-1434h-148v649h-147v-649h-148z" />
<glyph unicode="I" horiz-adv-x="270" d="M61 0v1434h148v-1434h-148z" />
<glyph unicode="J" d="M61 221v428h148v-440q0 -31 21.5 -52.5t52 -21.5t52 21.5t21.5 52.5v1089h-295v136h443v-1213q0 -92 -64.5 -156.5t-157 -64.5t-157 64.5t-64.5 156.5z" />
<glyph unicode="K" d="M61 0v1434h148v-650h74q31 0 52 21.5t21 52.5v576h148v-564q0 -90 -64 -153q63 -63 64 -154v-563h-148v575q0 31 -21.5 52.5t-51.5 21.5h-74v-649h-148z" />
<glyph unicode="L" d="M61 221v1213h148v-1225q0 -31 21.5 -52.5t52 -21.5t52 21.5t21.5 52.5v221h148v-209q0 -92 -64.5 -156.5t-157 -64.5t-157 64.5t-64.5 156.5z" />
<glyph unicode="M" horiz-adv-x="860" d="M61 0v1212q0 92 64.5 157t157.5 65q84 0 147 -58q64 58 148 58q92 0 156.5 -64.5t64.5 -157.5v-1212h-148v1225q0 31 -21.5 52t-52 21t-52 -21.5t-21.5 -51.5v-1225h-148v1225q0 31 -21.5 52t-52 21t-52 -21.5t-21.5 -51.5v-1225h-148z" />
<glyph unicode="N" d="M61 0v1212q0 92 64.5 157t157 65t157 -64.5t64.5 -157.5v-1212h-148v1225q0 31 -21.5 52t-52 21t-52 -21.5t-21.5 -51.5v-1225h-148z" />
<glyph unicode="O" d="M61 221v991q0 92 64.5 157t157 65t157 -64.5t64.5 -157.5v-991q0 -92 -64.5 -156.5t-157 -64.5t-157 64.5t-64.5 156.5zM209 209q0 -31 21.5 -52.5t52 -21.5t52 21.5t21.5 52.5v1016q0 31 -21.5 52t-52 21t-52 -21.5t-21.5 -51.5v-1016z" />
<glyph unicode="P" d="M61 0v1434h222q92 0 156.5 -64.5t64.5 -157.5v-342q0 -92 -64.5 -156.5t-156.5 -64.5h-74v-649h-148zM209 784h74q31 0 52 21.5t21 52.5v367q0 31 -21.5 52t-51.5 21h-74v-514z" />
<glyph unicode="Q" d="M61 221v991q0 92 64.5 157t157 65t157 -64.5t64.5 -157.5v-991q0 -72 -41 -128t-107 -79v-137h-147v137q-66 23 -107 79.5t-41 127.5zM209 209q0 -31 21.5 -52.5t52 -21.5t52 21.5t21.5 52.5v1016q0 31 -21.5 52t-52 21t-52 -21.5t-21.5 -51.5v-1016z" />
<glyph unicode="R" d="M61 0v1434h222q92 0 156.5 -64.5t64.5 -157.5v-342q0 -90 -64 -153q63 -63 64 -154v-563h-148v575q0 31 -21.5 52.5t-51.5 21.5h-74v-649h-148zM209 784h74q31 0 52 21.5t21 52.5v367q0 31 -21.5 52t-51.5 21h-74v-514z" />
<glyph unicode="S" d="M61 221v209h148v-221q0 -31 21.5 -52.5t52 -21.5t52 21.5t21.5 52.5v366q0 31 -21.5 52.5t-51.5 21.5q-92 0 -157 64.5t-65 156.5v342q0 92 64.5 157t157 65t157 -64.5t64.5 -157.5v-208h-148v221q0 31 -21.5 52t-52 21t-52 -21.5t-21.5 -51.5v-367q0 -31 21.5 -52.5 t52.5 -21.5q92 0 156.5 -64.5t64.5 -156.5v-342q0 -92 -64.5 -156.5t-157 -64.5t-157 64.5t-64.5 156.5z" />
<glyph unicode="T" d="M61 1298v136h443v-136h-148v-1298h-147v1298h-148z" />
<glyph unicode="U" d="M61 221v1213h148v-1225q0 -31 21.5 -52.5t52 -21.5t52 21.5t21.5 52.5v1225h148v-1213q0 -92 -64.5 -156.5t-157 -64.5t-157 64.5t-64.5 156.5z" />
<glyph unicode="V" d="M61 1434h148l61 -957q0 -8 6.5 -12t12.5 0t6 12l61 957h148l-148 -1434h-45h-57h-45z" />
<glyph unicode="W" horiz-adv-x="860" d="M61 221v1213h148v-1225q0 -31 21.5 -52.5t52 -21.5t52 21.5t21.5 52.5v1225h148v-1225q0 -31 21.5 -52.5t52 -21.5t52 21.5t21.5 52.5v1225h148v-1213q0 -92 -64.5 -156.5t-156.5 -64.5q-84 0 -148 57q-63 -57 -147 -57q-92 0 -157 64.5t-65 156.5z" />
<glyph unicode="X" d="M61 0v563q0 90 64 154q-63 63 -64 153v564h148v-576q0 -31 21.5 -52.5t52 -21.5t52 21.5t21.5 52.5v576h148v-564q0 -90 -64 -153q63 -63 64 -154v-563h-148v575q0 31 -21.5 52.5t-52 21.5t-52 -21.5t-21.5 -52.5v-575h-148z" />
<glyph unicode="Y" d="M61 870v564h148v-576q0 -31 21.5 -52.5t52 -21.5t52 21.5t21.5 52.5v576h148v-564q0 -72 -41 -128t-107 -78v-664h-147v664q-66 23 -107 79t-41 127z" />
<glyph unicode="Z" d="M61 119q0 12 5 33l286 1146h-291v136h320q63 0 98 -45q25 -31 25 -74q0 -12 -4 -33l-287 -1147h291v-135h-320q-63 0 -98 45q-25 31 -25 74z" />
<glyph unicode="[" horiz-adv-x="516" d="M61 -135v1704h394v-135h-246v-1434h246v-135h-394z" />
<glyph unicode="\" horiz-adv-x="659" d="M61 1419l95 29l442 -1434l-94 -28z" />
<glyph unicode="]" horiz-adv-x="516" d="M61 0h246v1434h-246v135h394v-1704h-394v135z" />
<glyph unicode="^" horiz-adv-x="634" d="M61 1178l256 256l256 -256l-96 -97l-160 162l-159 -162z" />
<glyph unicode="_" d="M61 0h443v-135h-443v135z" />
<glyph unicode="`" horiz-adv-x="262" d="M61 1462h107l33 -192h-99z" />
<glyph unicode="a" d="M61 0v987q0 92 64.5 156.5t157 64.5t157 -64.5t64.5 -156.5v-987h-148v537h-147v-537h-148zM209 672h147v327q0 31 -21.5 52.5t-52 21.5t-52 -21.5t-21.5 -52.5v-327z" />
<glyph unicode="b" d="M61 0v1208h222q92 0 156.5 -64.5t64.5 -156.5v-229q0 -90 -64 -154q63 -63 64 -153v-230q0 -92 -64.5 -156.5t-156.5 -64.5h-222zM209 135h74q31 0 52 21.5t21 52.5v254q0 31 -21.5 52.5t-51.5 21.5h-74v-402zM209 672h74q31 0 52 21.5t21 51.5v254q0 31 -21.5 52.5 t-51.5 21.5h-74v-401z" />
<glyph unicode="c" d="M61 221v766q0 92 64.5 156.5t157 64.5t157 -64.5t64.5 -156.5v-147h-148v159q0 31 -21.5 52.5t-52 21.5t-52 -21.5t-21.5 -52.5v-790q0 -31 21.5 -52.5t52 -21.5t52 21.5t21.5 52.5v160h148v-148q0 -92 -64.5 -156.5t-157 -64.5t-157 64.5t-64.5 156.5z" />
<glyph unicode="d" d="M61 0v1208h222q92 0 156.5 -64.5t64.5 -156.5v-766q0 -92 -64.5 -156.5t-156.5 -64.5h-222zM209 135h74q31 0 52 21.5t21 52.5v790q0 31 -21.5 52.5t-51.5 21.5h-74v-938z" />
<glyph unicode="e" d="M61 221v766q0 92 64.5 156.5t157 64.5t157 -64.5t64.5 -156.5v-147h-148v159q0 31 -21.5 52.5t-52 21.5t-52 -21.5t-21.5 -52.5v-327h147v-135h-147v-328q0 -31 21.5 -52.5t52 -21.5t52 21.5t21.5 52.5v160h148v-148q0 -92 -64.5 -156.5t-157 -64.5t-157 64.5 t-64.5 156.5z" />
<glyph unicode="f" d="M61 0v987q0 92 64.5 156.5t157 64.5t157 -64.5t64.5 -156.5v-147h-148v159q0 31 -21.5 52.5t-52 21.5t-52 -21.5t-21.5 -52.5v-327h147v-135h-147v-537h-148z" />
<glyph unicode="g" d="M61 221v766q0 92 64.5 156.5t157 64.5t157 -64.5t64.5 -156.5v-147h-148v159q0 31 -21.5 52.5t-52 21.5t-52 -21.5t-21.5 -52.5v-790q0 -31 21.5 -52.5t52 -21.5t52 21.5t21.5 52.5v328h-73v135h221v-451q0 -92 -64.5 -156.5t-157 -64.5t-157 64.5t-64.5 156.5z" />
<glyph unicode="h" d="M61 0v1208h148v-536h147v536h148v-1208h-148v537h-147v-537h-148z" />
<glyph unicode="i" horiz-adv-x="270" d="M61 0v1208h148v-1208h-148z" />
<glyph unicode="j" d="M61 221v322h148v-334q0 -31 21.5 -52.5t52 -21.5t52 21.5t21.5 52.5v864h-295v135h443v-987q0 -92 -64.5 -156.5t-157 -64.5t-157 64.5t-64.5 156.5z" />
<glyph unicode="k" d="M61 0v1208h148v-536h74q31 0 52 21t21 52v463h148v-450q0 -90 -64 -154q63 -63 64 -153v-451h-148v463q0 31 -21.5 52.5t-51.5 21.5h-74v-537h-148z" />
<glyph unicode="l" d="M61 221v987h148v-999q0 -31 21.5 -52.5t52 -21.5t52 21.5t21.5 52.5v160h148v-148q0 -92 -64.5 -156.5t-157 -64.5t-157 64.5t-64.5 156.5z" />
<glyph unicode="m" horiz-adv-x="860" d="M61 0v987q0 92 64.5 156.5t157.5 64.5q84 0 147 -57q64 57 148 57q92 0 156.5 -64.5t64.5 -156.5v-987h-148v999q0 31 -21.5 52.5t-52 21.5t-52 -21.5t-21.5 -52.5v-999h-148v999q0 31 -21.5 52.5t-52 21.5t-52 -21.5t-21.5 -52.5v-999h-148z" />
<glyph unicode="n" d="M61 0v987q0 92 64.5 156.5t157 64.5t157 -64.5t64.5 -156.5v-987h-148v999q0 31 -21.5 52.5t-52 21.5t-52 -21.5t-21.5 -52.5v-999h-148z" />
<glyph unicode="o" d="M61 221v766q0 92 64.5 156.5t157 64.5t157 -64.5t64.5 -156.5v-766q0 -92 -64.5 -156.5t-157 -64.5t-157 64.5t-64.5 156.5zM209 209q0 -31 21.5 -52.5t52 -21.5t52 21.5t21.5 52.5v790q0 31 -21.5 52.5t-52 21.5t-52 -21.5t-21.5 -52.5v-790z" />
<glyph unicode="p" d="M61 0v1208h222q92 0 156.5 -64.5t64.5 -156.5v-229q0 -92 -64.5 -156.5t-156.5 -64.5h-74v-537h-148zM209 672h74q31 0 52 21t21 52v254q0 31 -21.5 52.5t-51.5 21.5h-74v-401z" />
<glyph unicode="q" d="M61 221v766q0 92 64.5 156.5t157 64.5t157 -64.5t64.5 -156.5v-766q0 -72 -41 -128t-107 -79v-137h-147v137q-66 23 -107 79.5t-41 127.5zM209 209q0 -31 21.5 -52.5t52 -21.5t52 21.5t21.5 52.5v790q0 31 -21.5 52.5t-52 21.5t-52 -21.5t-21.5 -52.5v-790z" />
<glyph unicode="r" d="M61 0v1208h222q92 0 156.5 -64.5t64.5 -156.5v-229q0 -90 -64 -154q63 -63 64 -153v-451h-148v463q0 31 -21.5 52.5t-51.5 21.5h-74v-537h-148zM209 672h74q31 0 52 21.5t21 51.5v254q0 31 -21.5 52.5t-51.5 21.5h-74v-401z" />
<glyph unicode="s" d="M61 221v148h148v-160q0 -31 21.5 -52.5t52 -21.5t52 21.5t21.5 52.5v254q0 31 -21.5 52.5t-51.5 21.5q-92 0 -157 64.5t-65 156.5v229q0 92 64.5 156.5t157 64.5t157 -64.5t64.5 -156.5v-147h-148v159q0 31 -21.5 52.5t-52 21.5t-52 -21.5t-21.5 -52.5v-254 q0 -31 21.5 -52t52.5 -21q92 0 156.5 -64.5t64.5 -156.5v-230q0 -92 -64.5 -156.5t-157 -64.5t-157 64.5t-64.5 156.5z" />
<glyph unicode="t" d="M61 1073v135h443v-135h-148v-1073h-147v1073h-148z" />
<glyph unicode="u" d="M61 221v987h148v-999q0 -31 21.5 -52.5t52 -21.5t52 21.5t21.5 52.5v999h148v-987q0 -92 -64.5 -156.5t-157 -64.5t-157 64.5t-64.5 156.5z" />
<glyph unicode="v" d="M61 1208h148l61 -807q0 -12 12.5 -12t12.5 12l61 807h148l-148 -1208h-45h-57h-45z" />
<glyph unicode="w" horiz-adv-x="860" d="M61 221v987h148v-999q0 -31 21.5 -52.5t52 -21.5t52 21.5t21.5 52.5v999h148v-999q0 -31 21.5 -52.5t52 -21.5t52 21.5t21.5 52.5v999h148v-987q0 -92 -64.5 -156.5t-156.5 -64.5q-84 0 -148 57q-63 -57 -147 -57q-92 0 -157 64.5t-65 156.5z" />
<glyph unicode="x" d="M61 0v451q0 90 64 153q-63 63 -64 154v450h148v-463q0 -31 21.5 -52t52 -21t52 21t21.5 52v463h148v-450q0 -90 -64 -154q63 -63 64 -153v-451h-148v463q0 31 -21.5 52.5t-52 21.5t-52 -21.5t-21.5 -52.5v-463h-148z" />
<glyph unicode="y" d="M61 758v450h148v-463q0 -31 21.5 -52t52 -21t52 21t21.5 52v463h148v-450q0 -72 -41 -128.5t-107 -78.5v-551h-147v551q-66 23 -107 79t-41 128z" />
<glyph unicode="z" d="M61 119q0 12 5 33l286 921h-291v135h320q63 0 98 -45q25 -31 25 -73q0 -12 -4 -33l-287 -922h291v-135h-320q-63 0 -98 45q-25 31 -25 74z" />
<glyph unicode="{" horiz-adv-x="663" d="M61 649v135h74q31 0 52.5 21.5t21.5 52.5v490q0 92 64.5 156.5t156.5 64.5h172v-135h-172q-31 0 -52.5 -21.5t-21.5 -52.5v-490q0 -92 -61 -153q61 -61 61 -154v-489q0 -31 21.5 -52.5t52.5 -21.5h172v-135h-172q-92 0 -156.5 64.5t-64.5 156.5v489q0 31 -21.5 52.5 t-52.5 21.5h-74z" />
<glyph unicode="|" horiz-adv-x="221" d="M61 -135v1704h99v-1704h-99z" />
<glyph unicode="}" horiz-adv-x="663" d="M61 0h172q31 0 52.5 21.5t21.5 52.5v489q0 92 62 154q-61 61 -62 153v490q0 31 -21.5 52.5t-52.5 21.5h-172v135h172q92 0 157 -64.5t65 -156.5v-490q0 -31 21.5 -52.5t51.5 -21.5h74v-135h-74q-31 0 -52 -21.5t-21 -52.5v-489q0 -92 -64.5 -156.5t-157.5 -64.5h-172v135 z" />
<glyph unicode="~" horiz-adv-x="630" d="M61 686l78 70q43 39 102.5 39t102.5 -39l8 -6q16 -12 37 -12.5t37 12.5l78 69l65 -71l-77 -70q-43 -39 -102.5 -39t-102.5 39l-8 6q-16 12 -37 12t-37 -12l-78 -70z" />
<glyph unicode="&#xa1;" horiz-adv-x="270" d="M61 -135v1139h148v-1139h-148zM61 1151v147h148v-147h-148z" />
<glyph unicode="&#xa2;" d="M61 221v991q0 72 41 129.5t107 79.5v144h147v-144q66 -23 107 -80t41 -129v-208h-148v221q0 31 -21.5 52t-52 21t-52 -21.5t-21.5 -51.5v-1016q0 -31 21.5 -52.5t52 -21.5t52 21.5t21.5 52.5v221h148v-209q0 -72 -41 -129t-107 -80v-143h-147v143q-66 23 -107 80.5 t-41 128.5z" />
<glyph unicode="&#xa3;" horiz-adv-x="712" d="M61 0v135h148v514h-148v135h148v428q0 92 64.5 157t156.5 65t156.5 -64.5t64.5 -157.5v-208h-147v221q0 31 -21.5 52t-52.5 21t-52.5 -21.5t-21.5 -51.5v-441h148v-135h-148v-514h295v-135h-590z" />
<glyph unicode="&#xa4;" horiz-adv-x="655" d="M61 236l84 190q-39 55 -39 123v340q0 70 39 125l-84 188l91 41l69 -160q49 27 106.5 27t106.5 -27l70 160l90 -41l-84 -188q39 -55 39 -125v-340q0 -68 -39 -123l84 -190l-90 -39l-70 159q-53 -29 -106.5 -28.5t-106.5 28.5l-69 -159zM254 537q0 -31 21.5 -52.5t52 -21.5 t52 21.5t21.5 52.5v364q0 31 -21.5 52.5t-52 21.5t-52 -21.5t-21.5 -52.5v-364z" />
<glyph unicode="&#xa5;" d="M61 225v135h148v103h-148v135h148v64q-66 23 -107 80t-41 128v564h148v-576q0 -31 21.5 -52.5t52 -21.5t52 21.5t21.5 52.5v576h148v-564q0 -72 -41 -129t-107 -79v-64h148v-135h-148v-103h148v-135h-148v-225h-147v225h-148z" />
<glyph unicode="&#xa6;" horiz-adv-x="221" d="M61 -135v700h99v-700h-99zM61 868v701h99v-701h-99z" />
<glyph unicode="&#xa7;" d="M61 90v135h148v-147q0 -31 21.5 -52.5t52 -21.5t52 21.5t21.5 52.5v262q-39 -14 -73 -14q-92 0 -157 64.5t-65 156.5v796q0 92 64.5 157t157 65t157 -64.5t64.5 -157.5v-135h-148v148q0 31 -21.5 52.5t-52 21.5t-52 -22t-21.5 -52v-260q39 14 74 14q92 0 156.5 -64.5 t64.5 -156.5v-799q0 -92 -64.5 -156.5t-157 -64.5t-157 64.5t-64.5 156.5zM209 535q0 -31 21.5 -52.5t52 -21.5t52 21.5t21.5 52.5v366q0 31 -21.5 52.5t-52 21.5t-52 -21.5t-21.5 -52.5v-366z" />
<glyph unicode="&#xa8;" horiz-adv-x="393" d="M61 1270v106h107v-106h-107zM225 1270v106h107v-106h-107z" />
<glyph unicode="&#xa9;" horiz-adv-x="1155" d="M61 516v176q0 213 152 364.5t365 151.5t364.5 -151.5t151.5 -364.5v-176q0 -213 -151.5 -364.5t-364.5 -151.5t-365 151.5t-152 364.5zM209 504q0 -152 108.5 -260.5t260 -108.5t260 108.5t108.5 260.5v201q0 152 -108.5 260t-260 108t-260 -108.5t-108.5 -259.5v-201z M356 504v201q0 92 64.5 156.5t157 64.5t157 -64.5t64.5 -156.5v-35h-148v47q0 31 -21.5 52.5t-52 21.5t-52 -21.5t-21.5 -52.5v-225q0 -31 21.5 -52.5t52 -21.5t52 21.5t21.5 52.5v47h148v-35q0 -92 -64.5 -156.5t-157 -64.5t-157 64.5t-64.5 156.5z" />
<glyph unicode="&#xaa;" horiz-adv-x="442" d="M61 807v98h320v-98h-320zM61 1004v296q0 55 39 94.5t95 39.5h53q55 0 94 -39t39 -95v-296h-98v116h-123v-116h-99zM160 1219h123v81q0 14 -10.5 24.5t-24.5 10.5h-53q-14 0 -24.5 -10t-10.5 -25v-81z" />
<glyph unicode="&#xab;" horiz-adv-x="798" d="M61 717l256 256l95 -96l-160 -160l160 -160l-95 -96zM387 717l256 256l94 -96l-159 -160l159 -160l-94 -96z" />
<glyph unicode="&#xac;" d="M61 649v135h443v-288h-148v153h-295z" />
<glyph unicode="&#xad;" horiz-adv-x="417" d="M61 649v135h295v-135h-295z" />
<glyph unicode="&#xae;" horiz-adv-x="1155" d="M61 516v176q0 213 152 364.5t365 151.5t364.5 -151.5t151.5 -364.5v-176q0 -213 -151.5 -364.5t-364.5 -151.5t-365 151.5t-152 364.5zM209 504q0 -152 108.5 -260.5t260 -108.5t260 108.5t108.5 260.5v201q0 152 -108.5 260t-260 108t-260 -108.5t-108.5 -259.5v-201z M356 373v332q0 92 64.5 156.5t157 64.5t157 -64.5t64.5 -156.5v-3q0 -92 -62 -153q61 -61 62 -154v-22h-148v35q0 31 -21.5 52t-51.5 21h-74v-108h-148zM504 616h74q31 0 52 21.5t21 52.5v27q0 31 -21.5 52.5t-52 21.5t-52 -21.5t-21.5 -52.5v-101z" />
<glyph unicode="&#xaf;" horiz-adv-x="393" d="M61 1270v106h271v-106h-271z" />
<glyph unicode="&#xb0;" horiz-adv-x="442" d="M61 1221v79q0 55 39 94.5t95 39.5h53q55 0 94 -39t39 -95v-79q0 -55 -39 -94.5t-94 -39.5h-53q-55 0 -94.5 39t-39.5 95zM160 1221q0 -14 10 -24.5t25 -10.5h53q14 0 24.5 10t10.5 25v79q0 14 -10.5 24.5t-24.5 10.5h-53q-14 0 -24.5 -10t-10.5 -25v-79z" />
<glyph unicode="&#xb1;" d="M61 225v135h443v-135h-443zM61 649v135h154v154h135v-154h154v-135h-154v-153h-135v153h-154z" />
<glyph unicode="&#xb2;" horiz-adv-x="442" d="M61 1004v131q0 55 39 94t95 39h53q14 0 24.5 10t10.5 24.5t-10.5 23.5t-24.5 9h-53q-14 0 -24.5 -9t-10.5 -23v-5h-99v5q0 55 39 93t95 38h53q55 0 94 -38t39 -93.5t-39 -94.5t-94 -39h-53q-14 0 -24.5 -10t-10.5 -24v-33h221v-98h-320z" />
<glyph unicode="&#xb3;" horiz-adv-x="442" d="M61 1135v4h99v-4q0 -14 10 -23.5t25 -9.5h53q14 0 24.5 9t10.5 23.5t-10.5 24.5t-24.5 10h-53v99h53q14 0 24.5 10t10.5 24.5t-10.5 23.5t-24.5 9h-53q-14 0 -24.5 -9t-10.5 -23v-5h-99v5q0 55 39 93t95 38h53q55 0 94 -38t39 -93q0 -49 -29 -84q29 -35 29 -84 q0 -55 -39 -93t-94 -38h-53q-55 0 -94.5 37.5t-39.5 93.5z" />
<glyph unicode="&#xb4;" horiz-adv-x="262" d="M61 1270l33 192h107l-41 -192h-99z" />
<glyph unicode="&#xb5;" d="M61 -131v1339h148v-1073h74q31 0 52 21.5t21 52.5v999h148v-987q0 -92 -64.5 -156.5t-156.5 -64.5h-74v-131h-148z" />
<glyph unicode="&#xb6;" horiz-adv-x="638" d="M61 870v342q0 92 65 157t157 65h295v-1434h-148v1298h-147q-31 0 -52.5 -21.5t-21.5 -51.5v-367q0 -31 21.5 -52.5t52.5 -21.5v-784h-148v707q-74 68 -74 163z" />
<glyph unicode="&#xb7;" horiz-adv-x="270" d="M61 643v148h148v-148h-148z" />
<glyph unicode="&#xb8;" horiz-adv-x="339" d="M61 -90h84q14 0 24.5 13.5t10.5 31.5t-10 31.5t-25 13.5v98q55 0 94.5 -42t39.5 -101t-39 -101t-95 -42h-84v98z" />
<glyph unicode="&#xb9;" horiz-adv-x="344" d="M61 1335v99h89q55 0 94 -39t39 -95v-296h-99v296q0 14 -10 24.5t-24 10.5h-89z" />
<glyph unicode="&#xba;" horiz-adv-x="442" d="M61 807v98h320v-98h-320zM61 1137v163q0 55 39 94.5t95 39.5h53q55 0 94 -39t39 -95v-163q0 -55 -39 -94t-94 -39h-53q-55 0 -94.5 38.5t-39.5 94.5zM160 1137q0 -14 10 -24.5t25 -10.5h53q14 0 24.5 10t10.5 25v163q0 14 -10.5 24.5t-24.5 10.5h-53q-14 0 -24.5 -10 t-10.5 -25v-163z" />
<glyph unicode="&#xbb;" horiz-adv-x="798" d="M61 557l160 160l-160 160l95 96l256 -256l-256 -256zM387 557l160 160l-160 160l94 96l256 -256l-256 -256z" />
<glyph unicode="&#xbc;" horiz-adv-x="741" d="M61 14l443 1434l92 -29l-442 -1433zM74 1335v99h88q55 0 94 -39t39 -95v-296h-98v296q0 14 -10.5 24.5t-24.5 10.5h-88zM360 299v131h99v-131q0 -14 10 -24.5t25 -10.5h88v166h98v-430h-98v166h-88q-55 0 -94.5 39t-39.5 94z" />
<glyph unicode="&#xbd;" horiz-adv-x="741" d="M61 14l443 1434l92 -29l-442 -1433zM74 1335v99h88q55 0 94 -39t39 -95v-296h-98v296q0 14 -10.5 24.5t-24.5 10.5h-88zM360 0v131q0 55 39 94t95 39h53q14 0 24.5 10.5t10.5 24.5t-10.5 23.5t-24.5 9.5h-53q-14 0 -24.5 -9.5t-10.5 -23.5v-4h-99v4q0 55 39 93t95 38h53 q55 0 94 -38t39 -93t-39 -94t-94 -39h-53q-14 0 -24.5 -10.5t-10.5 -24.5v-33h221v-98h-320z" />
<glyph unicode="&#xbe;" horiz-adv-x="827" d="M61 1135v4h99v-4q0 -14 10 -23.5t25 -9.5h53q14 0 24.5 9t10.5 23.5t-10.5 24.5t-24.5 10h-53v99h53q14 0 24.5 10t10.5 24.5t-10.5 23.5t-24.5 9h-53q-14 0 -24.5 -9t-10.5 -23v-5h-99v5q0 55 39 93t95 38h53q55 0 94 -38t39 -93q0 -49 -29 -84q29 -35 29 -84 q0 -55 -39 -93t-94 -38h-53q-55 0 -94.5 37.5t-39.5 93.5zM145 14l443 1434l94 -29l-442 -1433zM446 299v131h99v-131q0 -14 10 -24.5t25 -10.5h88v166h98v-430h-98v166h-88q-55 0 -94.5 39t-39.5 94z" />
<glyph unicode="&#xbf;" d="M61 90v342q0 92 64.5 156.5t157.5 64.5q31 0 52 21.5t21 52.5v281h148v-269q0 -92 -64.5 -156.5t-156.5 -64.5q-31 0 -52.5 -21.5t-21.5 -52.5v-366q0 -31 21.5 -52.5t52 -21.5t52 21.5t21.5 52.5v221h148v-209q0 -92 -64.5 -156.5t-157 -64.5t-157 64.5t-64.5 156.5z M356 1155v148h148v-148h-148z" />
<glyph unicode="&#xc0;" d="M61 0v1212q0 92 64.5 157t157 65t157 -64.5t64.5 -157.5v-1212h-148v649h-147v-649h-148zM193 1688h106l33 -193h-99zM209 784h147v441q0 31 -21.5 52t-52 21t-52 -21.5t-21.5 -51.5v-441z" />
<glyph unicode="&#xc1;" d="M61 0v1212q0 92 64.5 157t157 65t157 -64.5t64.5 -157.5v-1212h-148v649h-147v-649h-148zM209 784h147v441q0 31 -21.5 52t-52 21t-52 -21.5t-21.5 -51.5v-441zM233 1495l33 193h107l-41 -193h-99z" />
<glyph unicode="&#xc2;" d="M61 0v1212q0 92 64.5 157t157 65t157 -64.5t64.5 -157.5v-1212h-148v649h-147v-649h-148zM147 1495l41 193h189l41 -193h-107l-24 150h-8l-25 -150h-107zM209 784h147v441q0 31 -21.5 52t-52 21t-52 -21.5t-21.5 -51.5v-441z" />
<glyph unicode="&#xc3;" d="M61 0v1212q0 92 64.5 157t157 65t157 -64.5t64.5 -157.5v-1212h-148v649h-147v-649h-148zM82 1526l53 67q39 45 92 45q55 0 95 -45q14 -18 30 0l56 66l75 -62l-53 -67q-39 -45 -92 -45q-55 0 -94 45q-14 18 -31 0l-55 -66zM209 784h147v441q0 31 -21.5 52t-52 21 t-52 -21.5t-21.5 -51.5v-441z" />
<glyph unicode="&#xc4;" d="M61 0v1212q0 92 64.5 157t157 65t157 -64.5t64.5 -157.5v-1212h-148v649h-147v-649h-148zM147 1495v107h107v-107h-107zM209 784h147v441q0 31 -21.5 52t-52 21t-52 -21.5t-21.5 -51.5v-441zM311 1495v107h107v-107h-107z" />
<glyph unicode="&#xc5;" d="M61 0v1212q0 92 64.5 157t157 65t157 -64.5t64.5 -157.5v-1212h-148v649h-147v-649h-148zM139 1638v50q0 59 42 101t101.5 42t101.5 -42t42 -101v-50q0 -59 -42 -101t-101.5 -42t-101.5 42t-42 101zM209 784h147v441q0 31 -21.5 52t-52 21t-52 -21.5t-21.5 -51.5v-441z M238 1638q0 -18 13 -31.5t31.5 -13.5t32 13.5t13.5 31.5v50q0 18 -13.5 31.5t-32 13.5t-31.5 -13.5t-13 -31.5v-50z" />
<glyph unicode="&#xc6;" horiz-adv-x="860" d="M61 0v1212q0 92 64.5 157t157.5 65q84 0 147 -58q63 57 148 58q92 0 156.5 -64.5t64.5 -157.5v-208h-148v221q0 31 -21.5 52t-52 21t-52 -21.5t-21.5 -51.5v-441h147v-135h-147v-440q0 -31 21.5 -52.5t52 -21.5t52 21.5t21.5 52.5v221h148v-209q0 -92 -64.5 -156.5 t-157 -64.5t-157 64.5t-64.5 156.5v428h-147v-649h-148zM209 784h147v441q0 31 -21.5 52t-52 21t-52 -21.5t-21.5 -51.5v-441z" />
<glyph unicode="&#xc7;" d="M61 221v991q0 92 64.5 157t157 65t157 -64.5t64.5 -157.5v-208h-148v221q0 31 -21.5 52t-52 21t-52 -21.5t-21.5 -51.5v-1016q0 -31 21.5 -52.5t52 -21.5t52 21.5t21.5 52.5v221h148v-209q0 -127 -109 -190q20 -37 21 -76q0 -59 -39 -101t-94 -42h-84v98h84q14 0 24 13.5 t10 31.5t-10 31.5t-24 13.5q-92 0 -157 64.5t-65 156.5z" />
<glyph unicode="&#xc8;" d="M61 221v991q0 92 64.5 157t157 65t157 -64.5t64.5 -157.5v-208h-148v221q0 31 -21.5 52t-52 21t-52 -21.5t-21.5 -51.5v-441h147v-135h-147v-440q0 -31 21.5 -52.5t52 -21.5t52 21.5t21.5 52.5v221h148v-209q0 -92 -64.5 -156.5t-157 -64.5t-157 64.5t-64.5 156.5z M193 1688h106l33 -193h-99z" />
<glyph unicode="&#xc9;" d="M61 221v991q0 92 64.5 157t157 65t157 -64.5t64.5 -157.5v-208h-148v221q0 31 -21.5 52t-52 21t-52 -21.5t-21.5 -51.5v-441h147v-135h-147v-440q0 -31 21.5 -52.5t52 -21.5t52 21.5t21.5 52.5v221h148v-209q0 -92 -64.5 -156.5t-157 -64.5t-157 64.5t-64.5 156.5z M233 1495l33 193h107l-41 -193h-99z" />
<glyph unicode="&#xca;" d="M61 221v991q0 92 64.5 157t157 65t157 -64.5t64.5 -157.5v-208h-148v221q0 31 -21.5 52t-52 21t-52 -21.5t-21.5 -51.5v-441h147v-135h-147v-440q0 -31 21.5 -52.5t52 -21.5t52 21.5t21.5 52.5v221h148v-209q0 -92 -64.5 -156.5t-157 -64.5t-157 64.5t-64.5 156.5z M147 1495l41 193h189l41 -193h-107l-24 150h-8l-25 -150h-107z" />
<glyph unicode="&#xcb;" d="M61 221v991q0 92 64.5 157t157 65t157 -64.5t64.5 -157.5v-208h-148v221q0 31 -21.5 52t-52 21t-52 -21.5t-21.5 -51.5v-441h147v-135h-147v-440q0 -31 21.5 -52.5t52 -21.5t52 21.5t21.5 52.5v221h148v-209q0 -92 -64.5 -156.5t-157 -64.5t-157 64.5t-64.5 156.5z M147 1495v107h107v-107h-107zM311 1495v107h107v-107h-107z" />
<glyph unicode="&#xcc;" horiz-adv-x="286" d="M61 1688h107l33 -193h-99zM78 0v1434h147v-1434h-147z" />
<glyph unicode="&#xcd;" horiz-adv-x="286" d="M61 0v1434h148v-1434h-148zM86 1495l33 193h106l-41 -193h-98z" />
<glyph unicode="&#xce;" horiz-adv-x="393" d="M61 1495l41 193h189l41 -193h-107l-24 150h-8l-25 -150h-107zM123 0v1434h147v-1434h-147z" />
<glyph unicode="&#xcf;" horiz-adv-x="393" d="M61 1495v107h107v-107h-107zM123 0v1434h147v-1434h-147zM225 1495v107h107v-107h-107z" />
<glyph unicode="&#xd0;" horiz-adv-x="614" d="M61 649v135h50v650h221q92 0 156.5 -64.5t64.5 -157.5v-991q0 -92 -64.5 -156.5t-156.5 -64.5h-221v649h-50zM258 135h74q31 0 52.5 21.5t21.5 52.5v1016q0 31 -22 52t-52 21h-74v-514h74v-135h-74v-514z" />
<glyph unicode="&#xd1;" d="M61 0v1212q0 92 64.5 157t157 65t157 -64.5t64.5 -157.5v-1212h-148v1225q0 31 -21.5 52t-52 21t-52 -21.5t-21.5 -51.5v-1225h-148zM82 1526l53 67q39 45 92 45q55 0 95 -45q14 -18 30 0l56 66l75 -62l-53 -67q-39 -45 -92 -45q-55 0 -94 45q-14 18 -31 0l-55 -66z" />
<glyph unicode="&#xd2;" d="M61 221v991q0 92 64.5 157t157 65t157 -64.5t64.5 -157.5v-991q0 -92 -64.5 -156.5t-157 -64.5t-157 64.5t-64.5 156.5zM193 1688h106l33 -193h-99zM209 209q0 -31 21.5 -52.5t52 -21.5t52 21.5t21.5 52.5v1016q0 31 -21.5 52t-52 21t-52 -21.5t-21.5 -51.5v-1016z" />
<glyph unicode="&#xd3;" d="M61 221v991q0 92 64.5 157t157 65t157 -64.5t64.5 -157.5v-991q0 -92 -64.5 -156.5t-157 -64.5t-157 64.5t-64.5 156.5zM209 209q0 -31 21.5 -52.5t52 -21.5t52 21.5t21.5 52.5v1016q0 31 -21.5 52t-52 21t-52 -21.5t-21.5 -51.5v-1016zM233 1495l33 193h107l-41 -193 h-99z" />
<glyph unicode="&#xd4;" d="M61 221v991q0 92 64.5 157t157 65t157 -64.5t64.5 -157.5v-991q0 -92 -64.5 -156.5t-157 -64.5t-157 64.5t-64.5 156.5zM147 1495l41 193h189l41 -193h-107l-24 150h-8l-25 -150h-107zM209 209q0 -31 21.5 -52.5t52 -21.5t52 21.5t21.5 52.5v1016q0 31 -21.5 52t-52 21 t-52 -21.5t-21.5 -51.5v-1016z" />
<glyph unicode="&#xd5;" d="M61 221v991q0 92 64.5 157t157 65t157 -64.5t64.5 -157.5v-991q0 -92 -64.5 -156.5t-157 -64.5t-157 64.5t-64.5 156.5zM82 1526l53 67q39 45 92 45q55 0 95 -45q14 -18 30 0l56 66l75 -62l-53 -67q-39 -45 -92 -45q-55 0 -94 45q-14 18 -31 0l-55 -66zM209 209 q0 -31 21.5 -52.5t52 -21.5t52 21.5t21.5 52.5v1016q0 31 -21.5 52t-52 21t-52 -21.5t-21.5 -51.5v-1016z" />
<glyph unicode="&#xd6;" d="M61 221v991q0 92 64.5 157t157 65t157 -64.5t64.5 -157.5v-991q0 -92 -64.5 -156.5t-157 -64.5t-157 64.5t-64.5 156.5zM147 1495v107h107v-107h-107zM209 209q0 -31 21.5 -52.5t52 -21.5t52 21.5t21.5 52.5v1016q0 31 -21.5 52t-52 21t-52 -21.5t-21.5 -51.5v-1016z M311 1495v107h107v-107h-107z" />
<glyph unicode="&#xd7;" horiz-adv-x="532" d="M61 608l109 109l-109 108l97 97l108 -109l109 109l96 -97l-109 -108l109 -109l-96 -96l-109 109l-108 -109z" />
<glyph unicode="&#xd8;" horiz-adv-x="659" d="M61 -119l66 252q-18 39 -18 88v991q0 92 64.5 157t156.5 65q70 0 125 -39l49 182l94 -25l-66 -252q18 -39 19 -88v-991q0 -92 -64.5 -156.5t-156.5 -64.5q-70 0 -125 39l-49 -182zM256 209q0 -31 21.5 -52.5t52 -21.5t52 21.5t21.5 52.5v596l-147 -565v-31zM256 629 l147 565v31q0 31 -21.5 52t-52 21t-52 -21t-21.5 -52v-596z" />
<glyph unicode="&#xd9;" d="M61 221v1213h148v-1225q0 -31 21.5 -52.5t52 -21.5t52 21.5t21.5 52.5v1225h148v-1213q0 -92 -64.5 -156.5t-157 -64.5t-157 64.5t-64.5 156.5zM193 1688h106l33 -193h-99z" />
<glyph unicode="&#xda;" d="M61 221v1213h148v-1225q0 -31 21.5 -52.5t52 -21.5t52 21.5t21.5 52.5v1225h148v-1213q0 -92 -64.5 -156.5t-157 -64.5t-157 64.5t-64.5 156.5zM233 1495l33 193h107l-41 -193h-99z" />
<glyph unicode="&#xdb;" d="M61 221v1213h148v-1225q0 -31 21.5 -52.5t52 -21.5t52 21.5t21.5 52.5v1225h148v-1213q0 -92 -64.5 -156.5t-157 -64.5t-157 64.5t-64.5 156.5zM147 1495l41 193h189l41 -193h-107l-24 150h-8l-25 -150h-107z" />
<glyph unicode="&#xdc;" d="M61 221v1213h148v-1225q0 -31 21.5 -52.5t52 -21.5t52 21.5t21.5 52.5v1225h148v-1213q0 -92 -64.5 -156.5t-157 -64.5t-157 64.5t-64.5 156.5zM147 1495v107h107v-107h-107zM311 1495v107h107v-107h-107z" />
<glyph unicode="&#xdd;" d="M61 870v564h148v-576q0 -31 21.5 -52.5t52 -21.5t52 21.5t21.5 52.5v576h148v-564q0 -72 -41 -128t-107 -78v-664h-147v664q-66 23 -107 79t-41 127zM233 1495l33 193h107l-41 -193h-99z" />
<glyph unicode="&#xde;" d="M61 -131v1565h148v-131h74q92 0 156.5 -64.5t64.5 -157.5v-860q0 -92 -64.5 -156.5t-156.5 -64.5h-74v-131h-148zM209 135h74q31 0 52 21.5t21 52.5v885q0 31 -21.5 52t-51.5 21h-74v-1032z" />
<glyph unicode="&#xdf;" d="M61 -131v1339h222q92 0 156.5 -64.5t64.5 -156.5v-229q0 -92 -62 -154q61 -61 62 -153v-230q0 -86 -57.5 -147.5t-141.5 -71.5v-2h-96v-131h-148zM209 135h74q31 0 52 21.5t21 52.5v254q0 31 -21.5 52.5t-51.5 21.5h-74v-402zM209 672h74q31 0 52 21.5t21 51.5v254 q0 31 -21 52.5t-52 21.5h-74v-401z" />
<glyph unicode="&#xe0;" d="M61 0v987q0 92 64.5 156.5t157 64.5t157 -64.5t64.5 -156.5v-987h-148v537h-147v-537h-148zM193 1462h106l33 -192h-99zM209 672h147v327q0 31 -21.5 52.5t-52 21.5t-52 -21.5t-21.5 -52.5v-327z" />
<glyph unicode="&#xe1;" d="M61 0v987q0 92 64.5 156.5t157 64.5t157 -64.5t64.5 -156.5v-987h-148v537h-147v-537h-148zM209 672h147v327q0 31 -21.5 52.5t-52 21.5t-52 -21.5t-21.5 -52.5v-327zM233 1270l33 192h107l-41 -192h-99z" />
<glyph unicode="&#xe2;" d="M61 0v987q0 92 64.5 156.5t157 64.5t157 -64.5t64.5 -156.5v-987h-148v537h-147v-537h-148zM147 1270l41 192h189l41 -192h-107l-24 149h-8l-25 -149h-107zM209 672h147v327q0 31 -21.5 52.5t-52 21.5t-52 -21.5t-21.5 -52.5v-327z" />
<glyph unicode="&#xe3;" d="M61 0v987q0 92 64.5 156.5t157 64.5t157 -64.5t64.5 -156.5v-987h-148v537h-147v-537h-148zM82 1300l53 68q39 45 92 45q55 0 95 -45q14 -18 30 0l56 66l75 -62l-53 -67q-39 -45 -92 -45q-55 0 -94 45q-14 18 -31 0l-55 -66zM209 672h147v327q0 31 -21.5 52.5t-52 21.5 t-52 -21.5t-21.5 -52.5v-327z" />
<glyph unicode="&#xe4;" d="M61 0v987q0 92 64.5 156.5t157 64.5t157 -64.5t64.5 -156.5v-987h-148v537h-147v-537h-148zM147 1270v106h107v-106h-107zM209 672h147v327q0 31 -21.5 52.5t-52 21.5t-52 -21.5t-21.5 -52.5v-327zM311 1270v106h107v-106h-107z" />
<glyph unicode="&#xe5;" d="M61 0v987q0 92 64.5 156.5t157 64.5t157 -64.5t64.5 -156.5v-987h-148v537h-147v-537h-148zM139 1413v49q0 59 42 101.5t101.5 42.5t101.5 -42t42 -102v-49q0 -59 -42 -101t-101.5 -42t-101.5 42t-42 101zM209 672h147v327q0 31 -21.5 52.5t-52 21.5t-52 -21.5 t-21.5 -52.5v-327zM238 1413q0 -18 13 -31.5t31.5 -13.5t32 13.5t13.5 31.5v49q0 18 -13.5 31.5t-32 13.5t-31.5 -13t-13 -32v-49z" />
<glyph unicode="&#xe6;" horiz-adv-x="860" d="M61 0v987q0 92 64.5 156.5t157.5 64.5q84 0 147 -57q63 57 148 57q92 0 156.5 -64.5t64.5 -156.5v-147h-148v159q0 31 -21.5 52.5t-52 21.5t-52 -21.5t-21.5 -52.5v-327h147v-135h-147v-328q0 -31 21.5 -52.5t52 -21.5t52 21.5t21.5 52.5v160h148v-148 q0 -92 -64.5 -156.5t-157 -64.5t-157 64.5t-64.5 156.5v316h-147v-537h-148zM209 672h147v327q0 31 -21.5 52.5t-52 21.5t-52 -21.5t-21.5 -52.5v-327z" />
<glyph unicode="&#xe7;" d="M61 221v766q0 92 64.5 156.5t157 64.5t157 -64.5t64.5 -156.5v-147h-148v159q0 31 -21.5 52.5t-52 21.5t-52 -21.5t-21.5 -52.5v-790q0 -31 21.5 -52.5t52 -21.5t52 21.5t21.5 52.5v160h148v-148q0 -127 -109 -190q20 -37 21 -76q0 -59 -39 -101t-94 -42h-84v98h84 q14 0 24 13.5t10 31.5t-10 31.5t-24 13.5q-92 0 -157 64.5t-65 156.5z" />
<glyph unicode="&#xe8;" d="M61 221v766q0 92 64.5 156.5t157 64.5t157 -64.5t64.5 -156.5v-147h-148v159q0 31 -21.5 52.5t-52 21.5t-52 -21.5t-21.5 -52.5v-327h147v-135h-147v-328q0 -31 21.5 -52.5t52 -21.5t52 21.5t21.5 52.5v160h148v-148q0 -92 -64.5 -156.5t-157 -64.5t-157 64.5 t-64.5 156.5zM193 1462h106l33 -192h-99z" />
<glyph unicode="&#xe9;" d="M61 221v766q0 92 64.5 156.5t157 64.5t157 -64.5t64.5 -156.5v-147h-148v159q0 31 -21.5 52.5t-52 21.5t-52 -21.5t-21.5 -52.5v-327h147v-135h-147v-328q0 -31 21.5 -52.5t52 -21.5t52 21.5t21.5 52.5v160h148v-148q0 -92 -64.5 -156.5t-157 -64.5t-157 64.5 t-64.5 156.5zM233 1270l33 192h107l-41 -192h-99z" />
<glyph unicode="&#xea;" d="M61 221v766q0 92 64.5 156.5t157 64.5t157 -64.5t64.5 -156.5v-147h-148v159q0 31 -21.5 52.5t-52 21.5t-52 -21.5t-21.5 -52.5v-327h147v-135h-147v-328q0 -31 21.5 -52.5t52 -21.5t52 21.5t21.5 52.5v160h148v-148q0 -92 -64.5 -156.5t-157 -64.5t-157 64.5 t-64.5 156.5zM147 1270l41 192h189l41 -192h-107l-24 149h-8l-25 -149h-107z" />
<glyph unicode="&#xeb;" d="M61 221v766q0 92 64.5 156.5t157 64.5t157 -64.5t64.5 -156.5v-147h-148v159q0 31 -21.5 52.5t-52 21.5t-52 -21.5t-21.5 -52.5v-327h147v-135h-147v-328q0 -31 21.5 -52.5t52 -21.5t52 21.5t21.5 52.5v160h148v-148q0 -92 -64.5 -156.5t-157 -64.5t-157 64.5 t-64.5 156.5zM147 1270v106h107v-106h-107zM311 1270v106h107v-106h-107z" />
<glyph unicode="&#xec;" horiz-adv-x="286" d="M61 1462h107l33 -192h-99zM78 0v1208h147v-1208h-147z" />
<glyph unicode="&#xed;" horiz-adv-x="286" d="M61 0v1208h148v-1208h-148zM86 1270l33 192h106l-41 -192h-98z" />
<glyph unicode="&#xee;" horiz-adv-x="393" d="M61 1270l41 192h189l41 -192h-107l-24 149h-8l-25 -149h-107zM123 0v1208h147v-1208h-147z" />
<glyph unicode="&#xef;" horiz-adv-x="393" d="M61 1270v106h107v-106h-107zM123 0v1208h147v-1208h-147zM225 1270v106h107v-106h-107z" />
<glyph unicode="&#xf0;" horiz-adv-x="614" d="M61 537v135h50v536h221q92 0 156.5 -64.5t64.5 -156.5v-766q0 -92 -64.5 -156.5t-156.5 -64.5h-221v537h-50zM258 135h74q31 0 52.5 21.5t21.5 52.5v790q0 31 -22 52.5t-52 21.5h-74v-401h74v-135h-74v-402z" />
<glyph unicode="&#xf1;" d="M61 0v987q0 92 64.5 156.5t157 64.5t157 -64.5t64.5 -156.5v-987h-148v999q0 31 -21.5 52.5t-52 21.5t-52 -21.5t-21.5 -52.5v-999h-148zM82 1300l53 68q39 45 92 45q55 0 95 -45q14 -18 30 0l56 66l75 -62l-53 -67q-39 -45 -92 -45q-55 0 -94 45q-14 18 -31 0l-55 -66z " />
<glyph unicode="&#xf2;" d="M61 221v766q0 92 64.5 156.5t157 64.5t157 -64.5t64.5 -156.5v-766q0 -92 -64.5 -156.5t-157 -64.5t-157 64.5t-64.5 156.5zM193 1462h106l33 -192h-99zM209 209q0 -31 21.5 -52.5t52 -21.5t52 21.5t21.5 52.5v790q0 31 -21.5 52.5t-52 21.5t-52 -21.5t-21.5 -52.5v-790z " />
<glyph unicode="&#xf3;" d="M61 221v766q0 92 64.5 156.5t157 64.5t157 -64.5t64.5 -156.5v-766q0 -92 -64.5 -156.5t-157 -64.5t-157 64.5t-64.5 156.5zM209 209q0 -31 21.5 -52.5t52 -21.5t52 21.5t21.5 52.5v790q0 31 -21.5 52.5t-52 21.5t-52 -21.5t-21.5 -52.5v-790zM233 1270l33 192h107 l-41 -192h-99z" />
<glyph unicode="&#xf4;" d="M61 221v766q0 92 64.5 156.5t157 64.5t157 -64.5t64.5 -156.5v-766q0 -92 -64.5 -156.5t-157 -64.5t-157 64.5t-64.5 156.5zM147 1270l41 192h189l41 -192h-107l-24 149h-8l-25 -149h-107zM209 209q0 -31 21.5 -52.5t52 -21.5t52 21.5t21.5 52.5v790q0 31 -21.5 52.5 t-52 21.5t-52 -21.5t-21.5 -52.5v-790z" />
<glyph unicode="&#xf5;" d="M61 221v766q0 92 64.5 156.5t157 64.5t157 -64.5t64.5 -156.5v-766q0 -92 -64.5 -156.5t-157 -64.5t-157 64.5t-64.5 156.5zM82 1300l53 68q39 45 92 45q55 0 95 -45q14 -18 30 0l56 66l75 -62l-53 -67q-39 -45 -92 -45q-55 0 -94 45q-14 18 -31 0l-55 -66zM209 209 q0 -31 21.5 -52.5t52 -21.5t52 21.5t21.5 52.5v790q0 31 -21.5 52.5t-52 21.5t-52 -21.5t-21.5 -52.5v-790z" />
<glyph unicode="&#xf6;" d="M61 221v766q0 92 64.5 156.5t157 64.5t157 -64.5t64.5 -156.5v-766q0 -92 -64.5 -156.5t-157 -64.5t-157 64.5t-64.5 156.5zM147 1270v106h107v-106h-107zM209 209q0 -31 21.5 -52.5t52 -21.5t52 21.5t21.5 52.5v790q0 31 -21.5 52.5t-52 21.5t-52 -21.5t-21.5 -52.5 v-790zM311 1270v106h107v-106h-107z" />
<glyph unicode="&#xf7;" d="M61 649v135h443v-135h-443zM209 348v148h147v-148h-147zM209 938v147h147v-147h-147z" />
<glyph unicode="&#xf8;" horiz-adv-x="659" d="M61 -117l72 238q-25 47 -24 100v766q0 92 64.5 156.5t156.5 64.5q66 0 119 -34l55 180l94 -29l-72 -238q25 -47 25 -100v-766q0 -92 -64.5 -156.5t-156.5 -64.5q-66 0 -119 35l-55 -180zM256 530l145 484q-4 25 -24.5 42t-46.5 17q-31 0 -52.5 -21.5t-21.5 -52.5v-469z M258 195q4 -25 24.5 -42.5t47.5 -17.5q31 0 52 21.5t21 52.5v469z" />
<glyph unicode="&#xf9;" d="M61 221v987h148v-999q0 -31 21.5 -52.5t52 -21.5t52 21.5t21.5 52.5v999h148v-987q0 -92 -64.5 -156.5t-157 -64.5t-157 64.5t-64.5 156.5zM193 1462h106l33 -192h-99z" />
<glyph unicode="&#xfa;" d="M61 221v987h148v-999q0 -31 21.5 -52.5t52 -21.5t52 21.5t21.5 52.5v999h148v-987q0 -92 -64.5 -156.5t-157 -64.5t-157 64.5t-64.5 156.5zM233 1270l33 192h107l-41 -192h-99z" />
<glyph unicode="&#xfb;" d="M61 221v987h148v-999q0 -31 21.5 -52.5t52 -21.5t52 21.5t21.5 52.5v999h148v-987q0 -92 -64.5 -156.5t-157 -64.5t-157 64.5t-64.5 156.5zM147 1270l41 192h189l41 -192h-107l-24 149h-8l-25 -149h-107z" />
<glyph unicode="&#xfc;" d="M61 221v987h148v-999q0 -31 21.5 -52.5t52 -21.5t52 21.5t21.5 52.5v999h148v-987q0 -92 -64.5 -156.5t-157 -64.5t-157 64.5t-64.5 156.5zM147 1270v106h107v-106h-107zM311 1270v106h107v-106h-107z" />
<glyph unicode="&#xfd;" d="M61 758v450h148v-463q0 -31 21.5 -52t52 -21t52 21t21.5 52v463h148v-450q0 -72 -41 -128.5t-107 -78.5v-551h-147v551q-66 23 -107 79t-41 128zM233 1270l33 192h107l-41 -192h-99z" />
<glyph unicode="&#xfe;" d="M61 -131v1339h148v-131h74q92 0 156.5 -64.5t64.5 -156.5v-635q0 -92 -64.5 -156.5t-156.5 -64.5h-74v-131h-148zM209 135h74q31 0 52 21.5t21 52.5v659q0 31 -21.5 52.5t-51.5 21.5h-74v-807z" />
<glyph unicode="&#xff;" d="M61 758v450h148v-463q0 -31 21.5 -52t52 -21t52 21t21.5 52v463h148v-450q0 -72 -41 -128.5t-107 -78.5v-551h-147v551q-66 23 -107 79t-41 128zM147 1270v106h107v-106h-107zM311 1270v106h107v-106h-107z" />
<glyph unicode="&#x152;" horiz-adv-x="860" d="M61 221v991q0 92 64.5 157t157.5 65q84 0 147 -58q63 57 148 58q92 0 156.5 -64.5t64.5 -157.5v-208h-148v221q0 31 -21.5 52t-52 21t-52 -21.5t-21.5 -51.5v-441h147v-135h-147v-440q0 -31 21.5 -52.5t52 -21.5t52 21.5t21.5 52.5v221h148v-209q0 -92 -64.5 -156.5 t-156.5 -64.5q-84 0 -148 57q-63 -57 -147 -57q-92 0 -157 64.5t-65 156.5zM209 209q0 -31 21.5 -52.5t52 -21.5t52 21.5t21.5 52.5v1016q0 31 -21.5 52t-52 21t-52 -21.5t-21.5 -51.5v-1016z" />
<glyph unicode="&#x153;" horiz-adv-x="860" d="M61 221v766q0 92 64.5 156.5t157.5 64.5q84 0 147 -57q63 57 148 57q92 0 156.5 -64.5t64.5 -156.5v-147h-148v159q0 31 -21.5 52.5t-52 21.5t-52 -21.5t-21.5 -52.5v-327h147v-135h-147v-328q0 -31 21.5 -52.5t52 -21.5t52 21.5t21.5 52.5v160h148v-148 q0 -92 -64.5 -156.5t-156.5 -64.5q-84 0 -148 57q-63 -57 -147 -57q-92 0 -157 64.5t-65 156.5zM209 209q0 -31 21.5 -52.5t52 -21.5t52 21.5t21.5 52.5v790q0 31 -21.5 52.5t-52 21.5t-52 -21.5t-21.5 -52.5v-790z" />
<glyph unicode="&#x178;" d="M61 870v564h148v-576q0 -31 21.5 -52.5t52 -21.5t52 21.5t21.5 52.5v576h148v-564q0 -72 -41 -128t-107 -78v-664h-147v664q-66 23 -107 79t-41 127zM147 1495v107h107v-107h-107zM311 1495v107h107v-107h-107z" />
<glyph unicode="&#x2c6;" horiz-adv-x="393" d="M61 1270l41 192h189l41 -192h-107l-24 149h-8l-25 -149h-107z" />
<glyph unicode="&#x2dc;" horiz-adv-x="524" d="M61 1300l54 68q39 45 92 45q55 0 94 -45q14 -18 31 0l55 66l76 -62l-53 -67q-39 -45 -93 -45q-55 0 -94 45q-14 18 -30 0l-56 -66z" />
<glyph unicode="&#x2000;" horiz-adv-x="915" />
<glyph unicode="&#x2001;" horiz-adv-x="1831" />
<glyph unicode="&#x2002;" horiz-adv-x="915" />
<glyph unicode="&#x2003;" horiz-adv-x="1831" />
<glyph unicode="&#x2004;" horiz-adv-x="610" />
<glyph unicode="&#x2005;" horiz-adv-x="457" />
<glyph unicode="&#x2006;" horiz-adv-x="305" />
<glyph unicode="&#x2007;" horiz-adv-x="305" />
<glyph unicode="&#x2008;" horiz-adv-x="228" />
<glyph unicode="&#x2009;" horiz-adv-x="366" />
<glyph unicode="&#x200a;" horiz-adv-x="101" />
<glyph unicode="&#x2010;" horiz-adv-x="417" d="M61 649v135h295v-135h-295z" />
<glyph unicode="&#x2011;" horiz-adv-x="417" d="M61 649v135h295v-135h-295z" />
<glyph unicode="&#x2012;" horiz-adv-x="417" d="M61 649v135h295v-135h-295z" />
<glyph unicode="&#x2013;" d="M61 649v135h443v-135h-443z" />
<glyph unicode="&#x2014;" horiz-adv-x="712" d="M61 649v135h590v-135h-590z" />
<glyph unicode="&#x2018;" horiz-adv-x="270" d="M61 1155v148l41 131h54l-33 -131h86v-148h-148z" />
<glyph unicode="&#x2019;" horiz-adv-x="270" d="M61 1286v148h148v-148l-41 -131h-53l32 131h-86z" />
<glyph unicode="&#x201a;" horiz-adv-x="270" d="M61 0v147h148v-147l-41 -131h-53l32 131h-86z" />
<glyph unicode="&#x201c;" horiz-adv-x="479" d="M61 1155v148l41 131h54l-33 -131h86v-148h-148zM270 1155v148l41 131h54l-33 -131h86v-148h-148z" />
<glyph unicode="&#x201d;" horiz-adv-x="479" d="M61 1286v148h148v-148l-41 -131h-53l32 131h-86zM270 1286v148h148v-148l-41 -131h-53l32 131h-86z" />
<glyph unicode="&#x201e;" horiz-adv-x="479" d="M61 0v147h148v-147l-41 -131h-53l32 131h-86zM270 0v147h148v-147l-41 -131h-53l32 131h-86z" />
<glyph unicode="&#x2022;" horiz-adv-x="344" d="M61 606v221h222v-221h-222z" />
<glyph unicode="&#x2026;" horiz-adv-x="860" d="M61 0v147h148v-147h-148zM356 0v147h148v-147h-148zM651 0v147h148v-147h-148z" />
<glyph unicode="&#x202f;" horiz-adv-x="366" />
<glyph unicode="&#x2039;" horiz-adv-x="475" d="M61 717l256 256l97 -96l-162 -160l162 -160l-97 -96z" />
<glyph unicode="&#x203a;" horiz-adv-x="475" d="M61 557l162 160l-162 160l97 96l256 -256l-256 -256z" />
<glyph unicode="&#x205f;" horiz-adv-x="457" />
<glyph unicode="&#x20ac;" horiz-adv-x="712" d="M61 514v135h148v135h-148v136h148v292q0 92 64.5 157t156.5 65t156.5 -64.5t64.5 -157.5v-208h-147v221q0 31 -21.5 52t-52.5 21t-52.5 -21.5t-21.5 -51.5v-305h148v-136h-148v-135h148v-135h-148v-305q0 -31 21.5 -52.5t52.5 -21.5t52.5 21.5t21.5 52.5v221h147v-209 q0 -92 -64.5 -156.5t-156.5 -64.5t-156.5 64.5t-64.5 156.5v293h-148z" />
<glyph unicode="&#x2122;" horiz-adv-x="983" d="M61 1335v99h285q47 0 84 -31q37 31 84 31h53q47 0 84 -31q37 31 84 31h53q55 0 94.5 -39t39.5 -95v-296h-99v296q0 14 -10 24.5t-25 10.5h-53q-14 0 -24.5 -10t-10.5 -25v-296h-98v296q0 14 -10 24.5t-25 10.5h-53q-14 0 -24.5 -10t-10.5 -25v-296h-98v296 q0 14 -10.5 24.5t-24.5 10.5h-76v-331h-98v331h-111z" />
<glyph unicode="&#x25fc;" horiz-adv-x="1208" d="M0 0v1208h1208v-1208h-1208z" />
</font>
</defs>
</svg>
